<svg width="272" height="247" viewBox="0 0 272 247" fill="none" xmlns="http://www.w3.org/2000/svg">
<path d="M84.5353 58.9297L86.0148 63.1692H90.8021L86.929 65.7893L88.4085 70.0288L84.5353 67.4088L80.6617 70.0288L82.1412 65.7893L78.2676 63.1692H83.0558L84.5353 58.9297Z" fill="url(#paint0_linear_705_8955)"/>
<path d="M105.898 40.957L108.278 47.7765H115.979L109.748 51.991L112.128 58.8108L105.898 54.5959L99.6674 58.8108L102.047 51.991L95.8164 47.7765H103.518L105.898 40.957Z" fill="url(#paint1_linear_705_8955)"/>
<path d="M161.468 42.6289L163.848 49.4484H171.549L165.318 53.6628L167.698 60.4827L161.468 56.2678L155.238 60.4827L157.618 53.6628L151.387 49.4484H159.088L161.468 42.6289Z" fill="url(#paint2_linear_705_8955)"/>
<path d="M133.644 29.6719L136.024 36.4913H143.725L137.495 40.706L139.875 47.5253L133.644 43.3108L127.414 47.5253L129.793 40.706L123.562 36.4913H131.264L133.644 29.6719Z" fill="url(#paint3_linear_705_8955)"/>
<path d="M186.9 58.9297L188.38 63.1692H193.167L189.294 65.7893L190.774 70.0288L186.9 67.4088L183.027 70.0288L184.506 65.7893L180.633 63.1692H185.421L186.9 58.9297Z" fill="url(#paint4_linear_705_8955)"/>
<g filter="url(#filter0_i_705_8955)">
<path d="M77.7341 84.0432L74.5625 84.1201L74.3699 87.0795C72.3505 118.099 75.0572 139.871 84.3971 157.468C93.7516 175.094 109.521 188.076 132.492 201.992L134.239 203.05L136.057 202.105C157.886 190.756 174.248 179.798 184.86 162.524C195.443 145.295 200.031 122.238 199.563 87.2358L199.519 83.9308L195.984 84.044C183.232 84.4511 173.057 82.8479 163.85 79.043C154.616 75.226 146.116 69.0949 136.87 60.1063L134.052 57.3672L131.609 60.4043C124.602 69.1141 118.226 74.7274 110.253 78.3275C102.231 81.9493 92.25 83.6888 77.7341 84.0432Z" stroke="url(#paint5_linear_705_8955)" stroke-width="9"/>
</g>
<path d="M84.1803 91.8453L83.1654 91.8704L83.1036 92.817C81.3132 120.317 83.742 139.314 91.8314 154.551C99.9262 169.796 113.612 181.132 133.971 193.461L134.529 193.799L135.111 193.497C154.474 183.434 168.648 173.88 177.821 158.953C186.985 144.04 191.069 123.91 190.654 92.8672L190.64 91.8094L189.509 91.8458C177.927 92.216 168.555 90.762 160.024 87.2372C151.484 83.7085 143.709 78.0731 135.371 69.9697L134.469 69.0938L133.687 70.065C127.346 77.9452 121.441 83.1928 113.949 86.5743C106.441 89.9629 97.2296 91.5273 84.1803 91.8453Z" stroke="#3A7A53"/>
<path d="M88.6682 175.613C80.3691 157.41 81.8532 182.717 81.8532 182.717C81.8532 182.717 54.26 174.266 67.4873 186.989C80.7142 199.711 96.9674 193.815 88.6682 175.613Z" fill="url(#paint6_linear_705_8955)"/>
<path d="M77.2965 163.133C73.3515 148.207 71.1245 167.79 71.1245 167.79C71.1245 167.79 51.0842 158.102 59.5371 169.398C67.9909 180.693 81.2411 178.059 77.2965 163.133Z" fill="url(#paint7_linear_705_8955)"/>
<path d="M70.1702 142.302C69.9521 129.089 64.0383 145.088 64.0383 145.088C64.0383 145.088 49.2567 133.356 54.0014 144.343C58.7457 155.328 70.3879 155.514 70.1702 142.302Z" fill="url(#paint8_linear_705_8955)"/>
<path d="M65.837 131.671C67.8007 122.252 61.0329 132.792 61.0329 132.792C61.0329 132.792 52.4108 122.385 54.0206 130.856C55.6305 139.327 63.8732 141.09 65.837 131.671Z" fill="url(#paint9_linear_705_8955)"/>
<path fill-rule="evenodd" clip-rule="evenodd" d="M115.601 207.24C87.1651 195.577 64.224 171.655 59.2344 143.185L61.1083 142.898C64.974 164.957 79.9185 184.304 99.9115 197.078C100.99 198.117 102.168 199.138 103.435 200.12C107.581 203.335 111.969 205.592 115.85 206.711L115.601 207.24Z" fill="url(#paint10_linear_705_8955)"/>
<path d="M182.938 177.043C191.238 158.84 189.753 184.146 189.753 184.146C189.753 184.146 217.347 175.695 204.12 188.418C190.892 201.141 174.639 195.245 182.938 177.043Z" fill="url(#paint11_linear_705_8955)"/>
<path d="M194.312 164.559C198.257 149.633 200.484 169.216 200.484 169.216C200.484 169.216 220.524 159.529 212.071 170.824C203.618 182.119 190.367 179.484 194.312 164.559Z" fill="url(#paint12_linear_705_8955)"/>
<path d="M201.855 151.669C202.073 138.457 207.986 154.456 207.986 154.456C207.986 154.456 222.768 142.724 218.023 153.71C213.279 164.696 201.636 164.882 201.855 151.669Z" fill="url(#paint13_linear_705_8955)"/>
<path d="M206.189 141.038C204.226 131.619 210.994 142.159 210.994 142.159C210.994 142.159 219.616 131.753 218.006 140.223C216.396 148.694 208.153 150.457 206.189 141.038Z" fill="url(#paint14_linear_705_8955)"/>
<path fill-rule="evenodd" clip-rule="evenodd" d="M156.006 208.666C184.443 197.003 207.383 173.081 212.373 144.611L210.5 144.324C206.634 166.383 191.689 185.731 171.696 198.504C170.618 199.543 169.44 200.563 168.172 201.546C164.027 204.761 159.639 207.018 155.758 208.137L156.006 208.666Z" fill="url(#paint15_linear_705_8955)"/>
<path d="M106.846 155.571C107.055 155.571 107.222 155.395 107.222 155.178C107.222 154.977 107.055 154.802 106.846 154.802C106.62 154.802 106.453 154.977 106.453 155.178C106.453 155.395 106.62 155.571 106.846 155.571ZM108.829 155.571C109.038 155.571 109.205 155.395 109.205 155.178C109.205 154.977 109.038 154.802 108.829 154.802C108.603 154.802 108.436 154.977 108.436 155.178C108.436 155.395 108.603 155.571 108.829 155.571ZM110.812 155.571C111.021 155.571 111.188 155.395 111.188 155.178C111.188 154.977 111.021 154.802 110.812 154.802C110.586 154.802 110.419 154.977 110.419 155.178C110.419 155.395 110.586 155.571 110.812 155.571ZM116.489 149.728V152.286H112.987V149.728H112.453V155.47H112.987V152.804H116.489V155.47H117.024V149.728H116.489ZM120.049 151.049C119.623 151.049 119.088 151.166 118.52 151.467L118.729 151.893C119.121 151.676 119.573 151.508 120.007 151.508C120.977 151.508 121.261 152.202 121.261 152.837V153.013C120.801 152.863 120.283 152.754 119.815 152.754C118.846 152.754 118.102 153.339 118.102 154.192C118.102 155.027 118.77 155.571 119.673 155.571C120.258 155.571 120.943 155.295 121.261 154.785V155.47H121.779V152.837C121.779 151.793 121.185 151.049 120.049 151.049ZM119.756 155.103C119.113 155.103 118.612 154.743 118.612 154.167C118.612 153.606 119.172 153.205 119.89 153.205C120.375 153.205 120.851 153.297 121.261 153.423V154.116C121.093 154.785 120.358 155.103 119.756 155.103ZM124.974 154.91C124.857 155.019 124.673 155.094 124.473 155.094C124.189 155.094 123.955 154.835 123.955 154.467V151.625H125.041V151.149H123.955V149.962H123.437V151.149H122.735V151.625H123.437V154.467C123.437 155.111 123.854 155.571 124.439 155.571C124.724 155.571 125.016 155.47 125.242 155.295L124.974 154.91ZM128.109 155.571C128.694 155.571 129.237 155.32 129.638 154.919L129.279 154.568C128.978 154.894 128.56 155.094 128.109 155.094C127.173 155.094 126.438 154.309 126.438 153.306C126.438 152.311 127.173 151.525 128.109 151.525C128.552 151.525 128.961 151.717 129.262 152.035L129.622 151.684C129.22 151.291 128.686 151.049 128.109 151.049C126.881 151.049 125.895 152.043 125.895 153.306C125.895 154.568 126.881 155.571 128.109 155.571ZM132.548 151.049C131.913 151.049 131.361 151.383 131.127 151.859V149.628H130.609V155.47H131.127V152.72C131.127 152.052 131.721 151.525 132.481 151.525C133.166 151.525 133.651 152.035 133.651 152.762V155.47H134.169V152.695C134.169 151.734 133.501 151.049 132.548 151.049ZM135.691 150.305C135.891 150.305 136.05 150.146 136.05 149.945C136.05 149.753 135.891 149.586 135.691 149.586C135.49 149.586 135.332 149.753 135.332 149.945C135.332 150.146 135.49 150.305 135.691 150.305ZM135.432 155.47H135.95V151.149H135.432V155.47ZM139.158 151.049C138.523 151.049 137.971 151.383 137.737 151.859V151.149H137.219V155.47H137.737V152.72C137.737 152.052 138.331 151.525 139.091 151.525C139.776 151.525 140.261 152.035 140.261 152.762V155.47H140.779V152.695C140.779 151.734 140.111 151.049 139.158 151.049ZM145.409 151.149V151.968C145.075 151.383 144.49 151.049 143.763 151.049C142.643 151.049 141.808 151.926 141.808 153.097C141.808 154.275 142.643 155.153 143.763 155.153C144.482 155.153 145.075 154.81 145.409 154.225V155.011C145.409 155.888 144.783 156.432 143.797 156.432C143.253 156.432 142.693 156.231 142.342 155.913L142.109 156.331C142.501 156.666 143.178 156.908 143.855 156.908C145.075 156.908 145.927 156.122 145.927 155.011V151.149H145.409ZM143.855 154.676C142.994 154.676 142.342 153.999 142.342 153.097C142.342 152.202 142.994 151.525 143.855 151.525C144.757 151.525 145.409 152.177 145.409 153.097C145.409 154.024 144.757 154.676 143.855 154.676ZM149.705 155.47H150.24V149.728H149.705V155.47ZM154.933 149.628V151.993C154.599 151.408 154.031 151.049 153.321 151.049C152.209 151.049 151.349 152.018 151.349 153.306C151.349 154.601 152.209 155.571 153.321 155.571C154.031 155.571 154.599 155.211 154.933 154.626V155.47H155.452V149.628H154.933ZM153.413 155.094C152.544 155.094 151.883 154.325 151.883 153.306C151.883 152.286 152.544 151.525 153.413 151.525C154.307 151.525 154.933 152.261 154.933 153.306C154.933 154.35 154.307 155.094 153.413 155.094ZM158.71 155.094C157.824 155.094 157.164 154.409 157.072 153.515H160.724C160.724 152.027 159.955 151.049 158.677 151.049C157.507 151.049 156.546 152.018 156.546 153.297C156.546 154.593 157.557 155.571 158.71 155.571C159.345 155.571 160.106 155.303 160.473 154.902L160.147 154.551C159.847 154.877 159.253 155.094 158.71 155.094ZM158.693 151.525C159.604 151.525 160.139 152.169 160.206 153.038H157.081C157.189 152.144 157.849 151.525 158.693 151.525ZM163.479 151.049C163.053 151.049 162.518 151.166 161.95 151.467L162.159 151.893C162.552 151.676 163.003 151.508 163.437 151.508C164.407 151.508 164.691 152.202 164.691 152.837V153.013C164.231 152.863 163.713 152.754 163.245 152.754C162.276 152.754 161.532 153.339 161.532 154.192C161.532 155.027 162.201 155.571 163.103 155.571C163.688 155.571 164.373 155.295 164.691 154.785V155.47H165.209V152.837C165.209 151.793 164.616 151.049 163.479 151.049ZM163.187 155.103C162.543 155.103 162.042 154.743 162.042 154.167C162.042 153.606 162.602 153.205 163.32 153.205C163.805 153.205 164.281 153.297 164.691 153.423V154.116C164.524 154.785 163.788 155.103 163.187 155.103ZM168.02 155.571C168.889 155.571 169.574 155.061 169.574 154.325C169.574 153.573 168.956 153.297 168.162 153.046C167.318 152.771 166.984 152.595 166.984 152.202C166.984 151.784 167.427 151.525 167.953 151.525C168.354 151.525 168.805 151.667 169.24 151.935L169.499 151.534C169.039 151.233 168.48 151.049 167.953 151.049C167.117 151.049 166.466 151.542 166.466 152.261C166.466 152.871 166.875 153.197 167.911 153.498C168.597 153.707 169.056 153.907 169.056 154.375C169.056 154.793 168.613 155.094 168.02 155.094C167.535 155.094 167.009 154.902 166.507 154.543L166.232 154.927C166.741 155.337 167.41 155.571 168.02 155.571Z" fill="#3A7A53"/>
<path fill-rule="evenodd" clip-rule="evenodd" d="M58.0644 115.271C57.8743 116.976 57.7941 118.679 57.8313 120.307C57.9052 123.554 58.4421 126.317 59.3559 128.147C59.4106 128.257 59.4666 128.363 59.5239 128.466L57.7022 128.714C56.9852 123.456 57.0195 120.428 57.5848 115.219L58.0644 115.271Z" fill="#3A7A53" fill-opacity="0.58"/>
<path fill-rule="evenodd" clip-rule="evenodd" d="M212.176 125.431C212.366 127.136 212.447 128.839 212.41 130.467C212.335 133.715 211.799 136.477 210.885 138.307C210.83 138.417 210.774 138.523 210.717 138.626L212.538 138.874C213.255 133.617 213.221 130.588 212.656 125.379L212.176 125.431Z" fill="#3A7A53" fill-opacity="0.58"/>
<path d="M147.621 158.605L169.765 158.188" stroke="black"/>
<path d="M157.23 158.424L169.763 158.188" stroke="#3A7A53"/>
<mask id="mask0_705_8955" style="mask-type:luminance" maskUnits="userSpaceOnUse" x="91" y="104" width="91" height="35">
<path d="M181.468 104.066H91.6367V138.755H181.468V104.066Z" fill="white"/>
</mask>
<g mask="url(#mask0_705_8955)">
<g filter="url(#filter1_i_705_8955)">
<path d="M91.7207 138.755H110.974C117.993 138.755 123.007 134.994 123.007 129.477C123.007 125.666 120.65 122.406 116.639 120.701C119.648 119.246 121.403 116.337 121.403 112.977C121.403 107.962 116.84 104.301 110.272 104.301H91.7207V138.755ZM101.397 117.691V112.476H107.915C109.921 112.476 111.375 113.579 111.375 115.084C111.375 116.588 109.921 117.691 107.915 117.691H101.397ZM101.397 130.581V125.064H109.369C111.475 125.064 112.979 126.217 112.979 127.822C112.979 129.427 111.475 130.581 109.369 130.581H101.397ZM127.366 138.755H137.093V120.299L146.318 136.749L155.544 120.299V138.755H165.271V104.301H155.544L146.318 120.751L137.093 104.301H127.366V138.755ZM171.486 138.755H181.213V104.301H171.486V138.755Z" fill="url(#paint16_linear_705_8955)"/>
</g>
</g>
<defs>
<filter id="filter0_i_705_8955" x="69.2402" y="50.6953" width="134.855" height="161.516" filterUnits="userSpaceOnUse" color-interpolation-filters="sRGB">
<feFlood flood-opacity="0" result="BackgroundImageFix"/>
<feBlend mode="normal" in="SourceGraphic" in2="BackgroundImageFix" result="shape"/>
<feColorMatrix in="SourceAlpha" type="matrix" values="0 0 0 0 0 0 0 0 0 0 0 0 0 0 0 0 0 0 127 0" result="hardAlpha"/>
<feOffset dy="4"/>
<feGaussianBlur stdDeviation="2"/>
<feComposite in2="hardAlpha" operator="arithmetic" k2="-1" k3="1"/>
<feColorMatrix type="matrix" values="0 0 0 0 0 0 0 0 0 0 0 0 0 0 0 0 0 0 0.25 0"/>
<feBlend mode="normal" in2="shape" result="effect1_innerShadow_705_8955"/>
</filter>
<filter id="filter1_i_705_8955" x="91.7207" y="104.301" width="89.4922" height="38.4531" filterUnits="userSpaceOnUse" color-interpolation-filters="sRGB">
<feFlood flood-opacity="0" result="BackgroundImageFix"/>
<feBlend mode="normal" in="SourceGraphic" in2="BackgroundImageFix" result="shape"/>
<feColorMatrix in="SourceAlpha" type="matrix" values="0 0 0 0 0 0 0 0 0 0 0 0 0 0 0 0 0 0 127 0" result="hardAlpha"/>
<feOffset dy="4"/>
<feGaussianBlur stdDeviation="2"/>
<feComposite in2="hardAlpha" operator="arithmetic" k2="-1" k3="1"/>
<feColorMatrix type="matrix" values="0 0 0 0 0 0 0 0 0 0 0 0 0 0 0 0 0 0 0.55 0"/>
<feBlend mode="normal" in2="shape" result="effect1_innerShadow_705_8955"/>
</filter>
<linearGradient id="paint0_linear_705_8955" x1="84.5353" y1="58.9297" x2="84.5353" y2="71.2007" gradientUnits="userSpaceOnUse">
<stop stop-color="#3A7A53"/>
<stop offset="0.375" stop-color="#DBA514" stop-opacity="0.75"/>
<stop offset="0.546875" stop-color="#3A7A53"/>
</linearGradient>
<linearGradient id="paint1_linear_705_8955" x1="105.898" y1="40.957" x2="105.898" y2="60.6953" gradientUnits="userSpaceOnUse">
<stop stop-color="#3A7A53"/>
<stop offset="0.541667" stop-color="#DBA514" stop-opacity="0.75"/>
<stop offset="0.651042" stop-color="#3A7A53"/>
</linearGradient>
<linearGradient id="paint2_linear_705_8955" x1="161.468" y1="42.6289" x2="161.468" y2="62.3672" gradientUnits="userSpaceOnUse">
<stop stop-color="#3A7A53"/>
<stop offset="0.395833" stop-color="#DBA514" stop-opacity="0.75"/>
<stop offset="0.697917" stop-color="#3A7A53"/>
</linearGradient>
<linearGradient id="paint3_linear_705_8955" x1="133.644" y1="29.6719" x2="133.644" y2="49.4101" gradientUnits="userSpaceOnUse">
<stop stop-color="#3A7A53"/>
<stop offset="0.270833" stop-color="#FFFF00" stop-opacity="0.4"/>
<stop offset="0.505208" stop-color="#3A7A53"/>
<stop offset="1" stop-color="#3A7A53"/>
</linearGradient>
<linearGradient id="paint4_linear_705_8955" x1="186.901" y1="58.9297" x2="186.901" y2="71.2007" gradientUnits="userSpaceOnUse">
<stop stop-color="#3A7A53"/>
<stop offset="0.442708" stop-color="#FFFF00" stop-opacity="0.5"/>
<stop offset="0.697917" stop-color="#3A7A53"/>
</linearGradient>
<linearGradient id="paint5_linear_705_8955" x1="136.668" y1="57.3672" x2="136.668" y2="203.05" gradientUnits="userSpaceOnUse">
<stop offset="0.0104167" stop-color="#3A7A53"/>
<stop offset="0.244792" stop-color="#FFFF00" stop-opacity="0.48"/>
<stop offset="0.583333" stop-color="#3A7A53" stop-opacity="0.92"/>
<stop offset="1" stop-color="#3A7A53" stop-opacity="0.96"/>
</linearGradient>
<linearGradient id="paint6_linear_705_8955" x1="72.7351" y1="174.317" x2="86.77" y2="192.675" gradientUnits="userSpaceOnUse">
<stop stop-color="#3A7A53"/>
<stop offset="0.546875" stop-color="#3A7A53"/>
<stop offset="0.78125" stop-color="#3A7A53" stop-opacity="0.58"/>
<stop offset="1" stop-color="#3A7A53" stop-opacity="0.1"/>
</linearGradient>
<linearGradient id="paint7_linear_705_8955" x1="65.2479" y1="160.288" x2="73.7111" y2="175.923" gradientUnits="userSpaceOnUse">
<stop stop-color="#3A7A53"/>
<stop offset="0.546875" stop-color="#3A7A53" stop-opacity="0.58"/>
<stop offset="0.78125" stop-color="#3A7A53"/>
<stop offset="1" stop-color="#3A7A53" stop-opacity="0.1"/>
</linearGradient>
<linearGradient id="paint8_linear_705_8955" x1="60.6673" y1="137.744" x2="64.8426" y2="152.275" gradientUnits="userSpaceOnUse">
<stop stop-color="#3A7A53"/>
<stop offset="0.546875" stop-color="#3A7A53" stop-opacity="0.58"/>
<stop offset="0.78125" stop-color="#3A7A53"/>
<stop offset="1" stop-color="#3A7A53" stop-opacity="0.1"/>
</linearGradient>
<linearGradient id="paint9_linear_705_8955" x1="59.8149" y1="127.101" x2="60.7376" y2="137.987" gradientUnits="userSpaceOnUse">
<stop stop-color="#3A7A53"/>
<stop offset="0.546875" stop-color="#3A7A53" stop-opacity="0.58"/>
<stop offset="0.78125" stop-color="#3A7A53"/>
<stop offset="1" stop-color="#3A7A53" stop-opacity="0.1"/>
</linearGradient>
<linearGradient id="paint10_linear_705_8955" x1="87.2708" y1="142.706" x2="87.7466" y2="207.445" gradientUnits="userSpaceOnUse">
<stop stop-color="#3A7A53"/>
<stop offset="0.546875" stop-opacity="0.44"/>
<stop offset="0.78125" stop-color="#3A7A53"/>
<stop offset="1" stop-color="#3A7A53" stop-opacity="0.1"/>
</linearGradient>
<linearGradient id="paint11_linear_705_8955" x1="198.872" y1="175.746" x2="184.837" y2="194.105" gradientUnits="userSpaceOnUse">
<stop stop-color="#3A7A53"/>
<stop offset="0.546875" stop-color="#3A7A53"/>
<stop offset="0.78125" stop-color="#3A7A53" stop-opacity="0.58"/>
<stop offset="1" stop-color="#3A7A53" stop-opacity="0.1"/>
</linearGradient>
<linearGradient id="paint12_linear_705_8955" x1="206.361" y1="161.714" x2="197.897" y2="177.35" gradientUnits="userSpaceOnUse">
<stop stop-color="#3A7A53"/>
<stop offset="0.546875" stop-color="#3A7A53" stop-opacity="0.58"/>
<stop offset="0.78125" stop-color="#3A7A53"/>
<stop offset="1" stop-color="#3A7A53" stop-opacity="0.1"/>
</linearGradient>
<linearGradient id="paint13_linear_705_8955" x1="211.357" y1="147.111" x2="207.182" y2="161.643" gradientUnits="userSpaceOnUse">
<stop stop-color="#3A7A53"/>
<stop offset="0.546875" stop-color="#3A7A53" stop-opacity="0.58"/>
<stop offset="0.78125" stop-color="#3A7A53"/>
<stop offset="1" stop-color="#3A7A53" stop-opacity="0.1"/>
</linearGradient>
<linearGradient id="paint14_linear_705_8955" x1="212.211" y1="136.468" x2="211.288" y2="147.355" gradientUnits="userSpaceOnUse">
<stop stop-color="#3161A3"/>
<stop offset="0.546875" stop-color="#3A7A53" stop-opacity="0.58"/>
<stop offset="0.78125" stop-color="#3A7A53"/>
<stop offset="1" stop-color="#3A7A53" stop-opacity="0.1"/>
</linearGradient>
<linearGradient id="paint15_linear_705_8955" x1="184.337" y1="144.132" x2="183.861" y2="208.871" gradientUnits="userSpaceOnUse">
<stop stop-color="#3A7A53"/>
<stop offset="0.546875" stop-opacity="0.44"/>
<stop offset="0.78125" stop-color="#3A7A53"/>
<stop offset="1" stop-color="#3A7A53" stop-opacity="0.12"/>
</linearGradient>
<linearGradient id="paint16_linear_705_8955" x1="136.553" y1="99.0515" x2="136.553" y2="149.204" gradientUnits="userSpaceOnUse">
<stop offset="0.614583" stop-color="#427F5A"/>
<stop offset="0.911458" stop-color="#3A7A53"/>
</linearGradient>
</defs>
</svg>
